# xmcd CD database file generated by Grip 3.3.1
# 
# Track frame offsets:
#       150
#       20702
#       38689
#       58925
#       75619
#       91938
#       109494
#       130514
#       148021
#       164114
#       180559
#       224721
# 
# Disc length: 3029 seconds
# 
# Revision: 1
# Processed by: cddbd v1.5.2PL0 Copyright (c) Steve Scherf et al.
# Submitted via: Grip 3.3.1
# 
DISCID=b00bd30c
DTITLE=Gran Bel Fisher - Full Moon Cigarette
DYEAR=2006
DGENRE=Other
TTITLE0=Full Moon Cigarette
TTITLE1=Far Cry
TTITLE2=Edible
TTITLE3=Moment
TTITLE4=Crash and Burn
TTITLE5=Dazey Day
TTITLE6=Do We Say Bye
TTITLE7=Blow Your Mind
TTITLE8=Bound By Love
TTITLE9=Baby Boy
TTITLE10=Change
TTITLE11=Data Track
EXTD=
EXTT0=
EXTT1=
EXTT2=
EXTT3=
EXTT4=
EXTT5=
EXTT6=
EXTT7=
EXTT8=
EXTT9=
EXTT10=
EXTT11=
PLAYORDER=
